<svg xmlns="http://www.w3.org/2000/svg" width="30" height="652" viewBox="0 0 30 652">
  <g fill="none" fill-rule="evenodd">
    <path fill="#DDDDDD" d="M17.6605385,10.2701378 C19.8713888,7.8506989 19.7893046,4.12056472 17.4741631,1.80072347 C15.1590216,-0.519117785 11.4290616,-0.608766386 9.00514417,1.59717284 C6.58122676,3.80311207 6.32003527,7.52499571 8.41209875,10.047854 C10.5041622,12.5707123 14.2100843,13.0028933 16.8265385,11.0291378 L21.4455385,15.6471378 C21.5486271,15.7538179 21.6901949,15.8146956 21.8385385,15.8161378 C21.9875653,15.8165853 22.1301518,15.7554251 22.2325385,15.6471378 C22.45003,15.4248173 22.45003,15.0694583 22.2325385,14.8471378 L17.6605385,10.2701378 L17.6605385,10.2701378 Z M8.01953852,6.05513778 C8.01872952,3.99705207 9.25786788,2.14116891 11.159059,1.35301299 C13.0602501,0.564857056 15.2490176,0.999670929 16.7045901,2.4546713 C18.1601626,3.90967167 18.595837,6.09826802 17.8084286,7.99976886 C17.0210202,9.90126968 15.1656244,11.1411376 13.1075385,11.1411378 C10.2992079,11.1389337 8.02284677,8.86346732 8.01953852,6.05513778 L8.01953852,6.05513778 L8.01953852,6.05513778 Z"/>
    <path fill="#669D41" d="M14.544,29.072 C22.5685672,29.0714477 29.0733682,22.5659006 29.073,14.5413334 C29.0726318,6.51676615 22.5672339,0.011815959 14.5426667,0.0120000382 C6.51809946,0.0121841175 0.013000019,6.51743276 0.013,14.542 C0.018516211,22.5648018 6.5211978,29.0670359 14.544,29.072 L14.544,29.072 L14.544,29.072 Z M14.544,2.297 C21.3067268,2.297 26.789,7.77927324 26.789,14.542 C26.789,21.3047268 21.3067268,26.787 14.544,26.787 C7.78127324,26.787 2.299,21.3047268 2.299,14.542 C2.30726373,7.78253718 7.78453787,2.30481572 14.544,2.296 L14.544,2.297 L14.544,2.297 Z M12.697,16.956 L17.591,20.765 C17.7928283,20.9185189 18.0375396,21.0052166 18.291,21.013 C18.6436083,21.0185444 18.9777974,20.8559057 19.191,20.575 C19.3780884,20.336104 19.4613356,20.0320508 19.4220331,19.731171 C19.3827307,19.4302912 19.2241755,19.1578234 18.982,18.975 L14.545,15.509 L14.545,7.686 C14.5573157,7.26976422 14.3422901,6.87976586 13.983732,6.66801132 C13.6251739,6.45625678 13.1798261,6.45625678 12.821268,6.66801132 C12.4627099,6.87976586 12.2476843,7.26976422 12.26,7.686 L12.26,16.065 C12.2613775,16.4132868 12.4224483,16.7416943 12.697,16.956 L12.697,16.956 L12.697,16.956 Z" transform="translate(0 26)"/>
    <path fill="#669D41" d="M9.719,0.014 C4.96501958,-0.0521905229 1.05700407,3.74704518 0.989,8.501 C0.989,16.601 9.719,27.174 9.719,27.174 C9.719,27.174 18.449,16.605 18.449,8.501 C18.3804475,3.74728157 14.4727596,-0.0516355923 9.719,0.014 L9.719,0.014 L9.719,0.014 Z M9.719,13.187 C7.2045247,13.1162267 5.21658839,11.032775 5.26380789,8.51774714 C5.31102739,6.00271927 7.3757685,3.99535641 9.89112832,4.01901793 C12.4064881,4.04267944 14.4331015,6.08852889 14.433,8.604 C14.3962554,11.1710501 12.2860662,13.222598 9.719,13.187 L9.719,13.187 L9.719,13.187 Z" transform="translate(0 66.184)"/>
    <path fill="#FFFFFF" d="M6.68,13.187 C6.8642342,13.1842575 7.01167045,13.033247 7.01,12.849 L7.01,7.595 C7.01,7.40998461 6.86001539,7.26 6.675,7.26 C6.48998461,7.26 6.34,7.40998461 6.34,7.595 L6.34,12.848 C6.33973166,12.938164 6.375499,13.0246979 6.43934866,13.0883597 C6.50319832,13.1520216 6.58983722,13.1875339 6.68,13.187 L6.68,13.187 Z M9.67,13.187 C9.76007022,13.1878023 9.84671315,13.1525139 9.91059254,13.0890102 C9.97447193,13.0255066 10.0102709,12.9390734 10.01,12.849 L10.01,7.595 C10.0102683,7.50483604 9.974501,7.41830212 9.91065134,7.35464025 C9.84680168,7.29097839 9.76016278,7.25546608 9.67,7.256 C9.48372905,7.25867201 9.33322066,7.40873773 9.33,7.595 L9.33,12.848 C9.33269842,13.0344839 9.48350894,13.1848509 9.67,13.187 L9.67,13.187 Z M12.63,13.187 C12.7200702,13.1878023 12.8067131,13.1525139 12.8705925,13.0890102 C12.9344719,13.0255066 12.9702709,12.9390734 12.97,12.849 L12.97,7.595 C12.97,7.40998461 12.8200154,7.26 12.635,7.26 C12.4499846,7.26 12.3,7.40998461 12.3,7.595 L12.3,12.848 C12.2983241,13.0324157 12.445606,13.1837143 12.63,13.187 L12.63,13.187 Z M15.56,13.187 C15.6500702,13.1878023 15.7367131,13.1525139 15.8005925,13.0890102 C15.8644719,13.0255066 15.9002709,12.9390734 15.9,12.849 L15.9,7.595 C15.9,7.40722319 15.7477768,7.255 15.56,7.255 C15.3722232,7.255 15.22,7.40722319 15.22,7.595 L15.22,12.848 C15.2197317,12.938164 15.255499,13.0246979 15.3193487,13.0883597 C15.3831983,13.1520216 15.4698372,13.1875339 15.56,13.187 L15.56,13.187 Z M21.33,3.06 L19.77,3.06 L20.85,1.972 C20.9748847,1.84808184 21.0451261,1.67943155 21.0451261,1.5035 C21.0451261,1.32756845 20.9748847,1.15891816 20.85,1.035 L20.01,0.195 C19.7508979,-0.0562238537 19.3391021,-0.0562238537 19.08,0.195 L16.21,3.06 L6.18,3.06 L3.32,0.195 C3.05690176,-0.0559209417 2.64309824,-0.0559209417 2.38,0.195 L1.54,1.034 C1.4153023,1.15822115 1.34520766,1.32698747 1.34520766,1.503 C1.34520766,1.67901253 1.4153023,1.84777885 1.54,1.972 L2.63,3.06 L0.99,3.06 L0.99,6.281 L2.42,6.281 L4.4,15.56 L17.35,15.56 L19.89,6.281 L21.33,6.281 L21.33,3.063 L21.33,3.06 Z M16.83,14.878 L4.95,14.878 L3.12,6.296 L19.18,6.296 L16.83,14.878 Z M20.65,5.6 L1.67,5.6 L1.67,3.738 L4.27,3.738 L2.02,1.514 L2.84,0.675 L5.9,3.738 L16.49,3.738 L19.54,0.675 L20.37,1.492 L18.13,3.738 L20.65,3.738 L20.65,5.6 L20.65,5.6 L20.65,5.6 Z" transform="translate(4 104.368)"/>
    <polygon fill="#FFFFFF" points="28.519 54.985 0 27.5 28.516 .016 30 1.524 3.05 27.5 30 53.476" transform="translate(0 130)" opacity=".79"/>
    <polygon fill="#FFFFFF" points="1.48 54.985 30 27.5 1.48 .016 0 1.525 26.95 27.5 0 53.476" transform="translate(0 196)" opacity=".79"/>
    <path fill="#7BA95B" d="M22.46,15.34 L15.51,17.89 C15.35,17.95 15.18,17.95 15.03,17.89 L8.31,15.42 L1.6,17.89 C1.53,17.92 1.44,17.93 1.36,17.93 C1.22,17.93 1.08,17.89 0.96,17.81 C0.77,17.68 0.66,17.46 0.66,17.23 L0.66,3.32 C0.66,3.03 0.84,2.77 1.12,2.66 L8.07,0.11 C8.23,0.05 8.4,0.05 8.56,0.11 L12.1,1.41 C12.87,0.58 13.98,0.07 15.2,0.07 C16.44,0.07 17.56,0.6 18.34,1.45 L21.98,0.11 C22.19,0.03 22.44,0.06 22.62,0.19 C22.81,0.32 22.92,0.54 22.92,0.77 L22.92,14.68 C22.92,14.97 22.74,15.23 22.46,15.34 L22.46,15.34 Z M15.2,1.47 C13.62,1.47 12.33,2.76 12.33,4.34 C12.33,6.81 14.34,8.68 15.2,9.36 C16.06,8.68 18.07,6.81 18.07,4.34 C18.07,2.76 16.78,1.47 15.2,1.47 L15.2,1.47 Z M21.52,1.78 L19.13,2.65 C19.35,3.17 19.47,3.74 19.47,4.34 C19.47,7.55 16.96,9.79 15.97,10.55 L15.97,14.19 C15.97,14.58 15.66,14.89 15.27,14.89 C14.88,14.89 14.56,14.58 14.56,14.19 L14.56,10.65 C13.7,10.01 10.93,7.7 10.93,4.34 C10.93,3.72 11.06,3.14 11.29,2.61 L8.31,1.52 L2.06,3.81 L2.06,16.22 L8.07,14.02 C8.23,13.96 8.4,13.96 8.56,14.02 L15.27,16.48 L21.52,14.18 L21.52,14.18 L21.52,1.78 L21.52,1.78 Z M8.31,12.34 C7.93,12.34 7.61,12.02 7.61,11.63 L7.61,3.81 C7.61,3.42 7.93,3.11 8.31,3.11 C8.7,3.11 9.02,3.42 9.02,3.81 L9.02,11.63 C9.02,12.02 8.7,12.34 8.31,12.34 L8.31,12.34 Z" transform="translate(0 261.632)"/>
    <path fill="#7BA95B" d="M19.76,3.76 C19.69,3.68 19.59,3.64 19.48,3.64 L15.15,3.64 C15.14,1.8 13.64,0.31 11.79,0.31 C11.13,0.31 10.52,0.5 10,0.83 C9.48,0.5 8.87,0.31 8.21,0.31 C7.31,0.31 6.47,0.65 5.84,1.29 C5.21,1.92 4.86,2.75 4.85,3.64 L0.52,3.64 C0.41,3.64 0.31,3.68 0.24,3.76 C0.17,3.83 0.13,3.93 0.13,4.03 L0.41,21.05 C0.41,21.26 0.58,21.43 0.79,21.43 L19.16,21.43 C19.37,21.43 19.54,21.26 19.54,21.05 L19.87,4.03 C19.87,3.93 19.83,3.83 19.76,3.76 L19.76,3.76 Z M14.38,3.64 L11.56,3.64 C11.56,2.75 11.21,1.95 10.64,1.35 C10.98,1.17 11.38,1.07 11.79,1.07 C13.21,1.07 14.37,2.22 14.38,3.64 L14.38,3.64 Z M10,1.8 C10.49,2.26 10.79,2.92 10.8,3.64 L9.2,3.64 C9.21,2.92 9.51,2.26 10,1.8 L10,1.8 Z M6.38,1.83 C6.87,1.34 7.52,1.07 8.21,1.07 C8.62,1.07 9.02,1.17 9.36,1.35 C8.79,1.95 8.44,2.75 8.44,3.64 L5.62,3.64 C5.63,2.96 5.89,2.32 6.38,1.83 L6.38,1.83 Z M0.91,4.41 L3.71,4.41 L3.44,20.66 L1.17,20.66 L0.91,4.41 L0.91,4.41 Z M18.78,20.66 L15.9,20.66 L4.21,20.66 L4.48,4.41 L8.44,4.41 L8.44,7.12 C8.44,7.33 8.61,7.5 8.82,7.5 C9.03,7.5 9.2,7.33 9.2,7.12 L9.2,4.41 L14.38,4.41 L14.38,7.12 C14.38,7.33 14.55,7.5 14.76,7.5 C14.97,7.5 15.15,7.33 15.15,7.12 L15.15,4.41 L19.09,4.41 L18.78,20.66 L18.78,20.66 Z" transform="translate(0 295.265)"/>
    <path fill="#7BA95B" d="M20.02,20.43 L3.39,20.43 C1.84,20.43 0.58,19.16 0.58,17.61 L0.58,6.05 C0.58,4.5 1.84,3.24 3.39,3.24 L8.13,3.24 L16.04,0.33 C16.13,0.29 16.22,0.3 16.31,0.34 C16.39,0.38 16.46,0.45 16.49,0.54 L16.82,1.56 L18.9,0.9 C18.99,0.87 19.09,0.88 19.17,0.93 C19.26,0.97 19.32,1.05 19.34,1.15 L19.88,3.24 L20.02,3.24 C21.57,3.24 22.83,4.5 22.83,6.05 L22.83,8.94 C23.51,9.13 24,9.75 24,10.48 L24,13.18 C24,13.91 23.51,14.53 22.83,14.72 L22.83,17.61 C22.83,19.16 21.57,20.43 20.02,20.43 L20.02,20.43 Z M3.39,3.93 C2.22,3.93 1.27,4.88 1.27,6.05 L1.27,17.61 C1.27,18.78 2.22,19.73 3.39,19.73 L20.02,19.73 C21.18,19.73 22.14,18.78 22.14,17.61 L22.14,14.78 L15.91,14.78 C15.08,14.78 14.4,14.1 14.4,13.26 L14.4,10.4 C14.4,9.57 15.08,8.89 15.91,8.89 L22.14,8.89 L22.14,6.05 C22.14,4.88 21.18,3.93 20.02,3.93 L19.62,3.93 L19.61,3.93 L17.14,3.93 L17.12,3.93 L8.2,3.93 L8.19,3.93 L3.39,3.93 L3.39,3.93 Z M15.09,13.18 C15.09,13.67 15.5,14.08 15.99,14.08 L22.4,14.08 C22.9,14.08 23.3,13.67 23.3,13.18 L23.3,10.48 C23.3,9.99 22.9,9.58 22.4,9.58 L15.99,9.58 C15.5,9.58 15.09,9.99 15.09,10.48 L15.09,13.18 L15.09,13.18 L15.09,13.18 Z M17.38,3.24 L19.16,3.24 L18.76,1.68 L17.04,2.22 L17.38,3.24 L17.38,3.24 Z M10.15,3.24 L16.65,3.24 L16.27,2.11 L16.27,2.1 L16.27,2.1 L15.94,1.1 L10.15,3.24 L10.15,3.24 Z M17.13,13.15 C16.4,13.15 15.81,12.56 15.81,11.83 C15.81,11.1 16.4,10.51 17.13,10.51 C17.86,10.51 18.45,11.1 18.45,11.83 C18.45,12.56 17.86,13.15 17.13,13.15 L17.13,13.15 Z M17.13,11.21 C16.78,11.21 16.51,11.49 16.51,11.83 C16.51,12.17 16.79,12.45 17.13,12.45 C17.47,12.45 17.75,12.17 17.75,11.83 C17.75,11.49 17.47,11.21 17.13,11.21 L17.13,11.21 Z" transform="translate(0 332.897)"/>
    <path fill="#7BA95B" d="M25.71,0.54 C25.4,0.23 24.9,0.23 24.6,0.54 L9.23,15.88 L1.87,8.54 C1.56,8.23 1.06,8.23 0.75,8.54 C0.44,8.85 0.44,9.36 0.75,9.67 L8.63,17.54 C8.64,17.54 8.64,17.54 8.65,17.55 C8.65,17.55 8.65,17.56 8.66,17.56 C8.97,17.87 9.47,17.87 9.77,17.56 L25.71,1.65 C26.02,1.35 26.02,0.85 25.71,0.54 L25.71,0.54 Z" transform="translate(0 369.53)"/>
    <path fill="#FFFFFF" d="M9.47,0.08 L7.15,0.08 C4.55,0.08 2.86,1.8 2.86,4.47 L2.86,6.49 L0.53,6.49 C0.33,6.49 0.17,6.66 0.17,6.86 L0.17,9.79 C0.17,9.99 0.33,10.16 0.53,10.16 L2.86,10.16 L2.86,17.56 C2.86,17.76 3.03,17.92 3.23,17.92 L6.27,17.92 C6.47,17.92 6.63,17.76 6.63,17.56 L6.63,10.16 L9.36,10.16 C9.56,10.16 9.72,9.99 9.72,9.79 L9.72,6.86 C9.72,6.76 9.69,6.67 9.62,6.6 C9.55,6.53 9.46,6.49 9.36,6.49 L6.63,6.49 L6.63,4.78 C6.63,3.95 6.83,3.53 7.91,3.53 L9.47,3.53 C9.67,3.53 9.83,3.37 9.83,3.17 L9.83,0.44 C9.83,0.24 9.67,0.08 9.47,0.08 L9.47,0.08 Z" transform="translate(3 403.22)"/>
    <path fill="#FFFFFF" d="M16.73,4.64 L14.96,4.64 C14.76,4.64 14.6,4.8 14.6,5 L14.6,6.78 C14.6,6.97 14.44,7.13 14.24,7.13 L13.71,7.13 C13.52,7.13 13.36,6.97 13.36,6.78 L13.36,5 C13.36,4.8 13.2,4.64 13,4.64 L11.22,4.64 C11.03,4.64 10.87,4.48 10.87,4.29 L10.87,3.76 C10.87,3.56 11.03,3.4 11.22,3.4 L13,3.4 C13.2,3.4 13.36,3.24 13.36,3.04 L13.36,1.27 C13.36,1.07 13.52,0.91 13.71,0.91 L14.24,0.91 C14.44,0.91 14.6,1.07 14.6,1.27 L14.6,3.04 C14.6,3.24 14.76,3.4 14.96,3.4 L16.73,3.4 C16.93,3.4 17.09,3.56 17.09,3.76 L17.09,4.29 C17.09,4.48 16.93,4.64 16.73,4.64 L16.73,4.64 Z M10.23,1.5 C10.06,1.6 9.76,1.68 9.57,1.68 L8.97,1.68 C8.77,1.68 8.75,1.76 8.9,1.89 C9.22,2.16 9.48,2.49 9.68,2.9 C9.93,3.43 10.06,3.98 10.06,4.55 C10.06,5.03 9.99,5.45 9.84,5.83 C9.69,6.2 9.51,6.5 9.29,6.73 C9.08,6.95 8.86,7.16 8.65,7.35 C8.44,7.54 8.25,7.74 8.11,7.95 C7.96,8.15 7.88,8.37 7.88,8.6 C7.88,8.77 7.94,8.94 8.04,9.1 C8.15,9.26 8.29,9.42 8.46,9.56 C8.63,9.71 8.82,9.87 9.03,10.03 C9.24,10.19 9.44,10.37 9.65,10.57 C9.86,10.77 10.05,10.98 10.22,11.21 C10.39,11.44 10.53,11.72 10.64,12.04 C10.75,12.36 10.8,12.7 10.8,13.07 C10.8,14.11 10.34,15.02 9.44,15.82 C8.45,16.66 7.09,17.09 5.35,17.09 C4.97,17.09 4.58,17.06 4.19,16.99 C3.8,16.93 3.4,16.82 3.01,16.67 C2.61,16.51 2.26,16.33 1.95,16.1 C1.65,15.88 1.4,15.59 1.2,15.24 C1.01,14.88 0.91,14.49 0.91,14.06 C0.91,13.66 1.03,13.22 1.27,12.74 C1.48,12.33 1.79,11.97 2.2,11.67 C2.62,11.37 3.09,11.14 3.61,10.98 C4.14,10.82 4.64,10.7 5.12,10.63 C5.48,10.57 5.85,10.53 6.22,10.51 C6.42,10.5 6.48,10.37 6.37,10.21 C6.09,9.78 5.96,9.4 5.96,9.05 C5.96,8.97 5.96,8.9 5.98,8.82 C5.99,8.75 6.01,8.68 6.02,8.63 C6.04,8.58 6.07,8.51 6.1,8.42 C6.12,8.38 6.13,8.35 6.14,8.32 C6.16,8.26 6.02,8.23 5.83,8.25 C5.71,8.26 5.59,8.26 5.49,8.26 C4.52,8.26 3.7,7.94 3.01,7.31 C2.32,6.67 1.97,5.88 1.97,4.92 C1.97,4.01 2.28,3.2 2.89,2.48 C3.51,1.76 4.27,1.31 5.17,1.11 C5.78,0.98 6.38,0.91 6.99,0.91 L10.88,0.91 C11.08,0.91 11.1,0.99 10.93,1.09 L10.23,1.5 L10.23,1.5 Z M5.65,11.15 C5.31,11.19 4.96,11.28 4.6,11.39 C4.23,11.51 3.91,11.66 3.64,11.84 C3.37,12.02 3.15,12.26 2.97,12.57 C2.8,12.87 2.71,13.22 2.71,13.61 C2.71,14.05 2.82,14.44 3.05,14.79 C3.28,15.14 3.59,15.41 3.96,15.61 C4.33,15.8 4.72,15.95 5.13,16.05 C5.54,16.15 5.95,16.19 6.37,16.19 C6.75,16.19 7.11,16.15 7.46,16.07 C7.81,15.99 8.13,15.87 8.44,15.69 C8.74,15.52 8.98,15.28 9.16,14.98 C9.34,14.67 9.43,14.32 9.43,13.91 C9.43,13.77 9.41,13.64 9.38,13.52 C9.35,13.39 9.32,13.27 9.29,13.17 C9.26,13.06 9.2,12.95 9.12,12.83 C9.04,12.71 8.97,12.62 8.92,12.53 C8.86,12.45 8.78,12.36 8.66,12.25 C8.54,12.14 8.45,12.05 8.39,12 C8.33,11.94 8.23,11.86 8.08,11.75 C7.94,11.64 7.83,11.57 7.78,11.53 C7.72,11.49 7.62,11.41 7.46,11.3 C7.4,11.26 7.35,11.23 7.31,11.2 C7.23,11.15 7.05,11.09 6.92,11.08 L6.68,11.08 C6.33,11.08 5.98,11.1 5.65,11.15 L5.65,11.15 Z M8.1,4.29 C7.99,3.85 7.84,3.43 7.64,3.02 C7.45,2.61 7.17,2.28 6.83,2.01 C6.48,1.74 6.09,1.61 5.66,1.61 C5.06,1.61 4.6,1.83 4.26,2.28 C3.93,2.73 3.77,3.26 3.77,3.89 C3.77,4.19 3.81,4.51 3.88,4.85 C3.96,5.19 4.07,5.52 4.23,5.86 C4.38,6.2 4.56,6.5 4.77,6.77 C4.98,7.04 5.23,7.26 5.53,7.42 C5.83,7.59 6.14,7.68 6.47,7.68 C6.94,7.68 7.32,7.57 7.59,7.35 C7.75,7.22 7.93,6.96 8.02,6.78 C8.18,6.44 8.26,6.02 8.26,5.53 C8.26,5.14 8.21,4.73 8.1,4.29 L8.1,4.29 Z" transform="translate(2 431.852)"/>
    <path fill="#FFFFFF" d="M19.01,9.28 C18.42,8.58 17.73,7.98 17.08,7.35 C16.5,6.78 16.46,6.44 16.93,5.78 C17.45,5.06 18,4.37 18.52,3.65 C19.01,2.97 19.5,2.3 19.76,1.5 C19.92,0.99 19.78,0.76 19.25,0.67 C19.16,0.66 19.07,0.66 18.98,0.66 L15.86,0.65 C15.48,0.65 15.27,0.81 15.13,1.15 C14.95,1.61 14.76,2.07 14.54,2.52 C14.05,3.52 13.5,4.49 12.72,5.32 C12.55,5.5 12.36,5.73 12.08,5.63 C11.72,5.5 11.61,4.91 11.62,4.71 L11.62,1.12 C11.55,0.61 11.43,0.38 10.92,0.28 L7.69,0.28 C7.26,0.28 7.04,0.45 6.81,0.72 C6.68,0.87 6.64,0.97 6.91,1.02 C7.45,1.13 7.75,1.47 7.83,2.01 C7.96,2.87 7.95,3.74 7.88,4.6 C7.86,4.85 7.81,5.1 7.71,5.34 C7.56,5.71 7.3,5.78 6.97,5.55 C6.67,5.35 6.46,5.06 6.26,4.77 C5.48,3.67 4.86,2.49 4.36,1.25 C4.21,0.89 3.96,0.67 3.58,0.66 C2.65,0.65 1.71,0.65 0.78,0.67 C0.22,0.68 0.05,0.95 0.28,1.46 C1.29,3.72 2.43,5.92 3.9,7.92 C4.66,8.95 5.53,9.86 6.66,10.5 C7.93,11.23 9.31,11.45 10.75,11.39 C11.43,11.35 11.63,11.18 11.67,10.5 C11.69,10.04 11.74,9.58 11.97,9.17 C12.19,8.76 12.53,8.68 12.92,8.94 C13.11,9.06 13.28,9.22 13.43,9.39 C13.81,9.81 14.18,10.24 14.58,10.64 C15.07,11.15 15.66,11.45 16.4,11.39 L19.26,11.39 C19.72,11.36 19.96,10.79 19.7,10.28 C19.51,9.92 19.27,9.6 19.01,9.28 L19.01,9.28 Z" transform="translate(1 465.484)"/>
    <path fill="#FFFFFF" d="M13,16 L3,16 C1.34,16 0,14.66 0,13 L0,3 C0,1.34 1.34,0 3,0 L13,0 C14.66,0 16,1.34 16,3 L16,13 C16,14.66 14.66,16 13,16 L13,16 Z M11.62,7.28 C11.6,7.19 11.57,7.1 11.54,7 C11.5,6.87 11.47,6.74 11.42,6.62 C11.37,6.51 11.31,6.4 11.25,6.29 C11.21,6.2 11.16,6.11 11.11,6.02 C11.04,5.91 10.95,5.81 10.87,5.7 C10.19,4.86 9.17,4.31 8,4.31 C6.83,4.31 5.81,4.86 5.13,5.7 C5.05,5.81 4.96,5.91 4.89,6.02 C4.84,6.11 4.79,6.2 4.74,6.29 C4.69,6.4 4.63,6.51 4.58,6.62 C4.53,6.74 4.5,6.87 4.46,7 C4.43,7.1 4.4,7.19 4.38,7.28 C4.33,7.52 4.31,7.75 4.31,8 C4.31,10.04 5.96,11.69 8,11.69 C10.04,11.69 11.69,10.04 11.69,8 C11.69,7.75 11.67,7.52 11.62,7.28 L11.62,7.28 Z M14.77,3 C14.77,2.02 13.98,1.23 13,1.23 L3,1.23 C2.02,1.23 1.23,2.02 1.23,3 L1.23,5.54 L3.76,5.54 C4.62,4.07 6.19,3.08 8,3.08 C9.81,3.08 11.38,4.07 12.24,5.54 L14.77,5.54 L14.77,3 L14.77,3 Z M11.69,3.69 L11.69,2.46 C11.69,2.12 11.97,1.85 12.31,1.85 L13.54,1.85 C13.88,1.85 14.15,2.12 14.15,2.46 L14.15,3.69 C14.15,4.03 13.88,4.31 13.54,4.31 L12.31,4.31 C11.97,4.31 11.69,4.03 11.69,3.69 L11.69,3.69 Z M8,10.35 C6.7,10.35 5.65,9.3 5.65,8 C5.65,7.55 5.78,7.14 6,6.79 C5.97,6.9 5.94,7.01 5.94,7.13 C5.94,7.79 6.48,8.32 7.13,8.32 C7.79,8.32 8.32,7.79 8.32,7.13 C8.32,6.48 7.79,5.94 7.13,5.94 C7.01,5.94 6.9,5.97 6.79,6 C7.14,5.79 7.55,5.65 8,5.65 C9.3,5.65 10.35,6.7 10.35,8 C10.35,9.3 9.3,10.35 8,10.35 L8,10.35 Z" transform="translate(1 493.116)"/>
    <path fill="#FFFFFF" d="M6.25,0.47 C2.89,0.47 0.16,3.19 0.16,6.56 C0.16,12.37 6.25,19.96 6.25,19.96 C6.25,19.96 12.34,12.37 12.34,6.56 C12.34,3.19 9.61,0.47 6.25,0.47 L6.25,0.47 Z M6.25,9.92 C4.43,9.92 2.96,8.45 2.96,6.63 C2.96,4.81 4.43,3.34 6.25,3.34 C8.07,3.34 9.54,4.81 9.54,6.63 C9.54,8.45 8.07,9.92 6.25,9.92 L6.25,9.92 Z" transform="translate(1 519.749)" opacity=".59"/>
    <path fill="#FFFFFF" d="M8.53,3.31 C7.63,3.37 6.84,3.48 6.15,3.64 C5.46,3.8 4.98,4.03 4.69,4.34 C4.74,4.54 4.76,4.86 4.76,5.31 L4.76,5.75 L0,5.75 C0.17,4.34 0.53,3.26 1.08,2.51 C1.6,1.82 2.31,1.36 3.21,1.14 C4.12,0.92 4.73,0.78 5.06,0.72 C5.81,0.57 6.61,0.47 7.45,0.42 C8.3,0.36 9.5,0.33 11.07,0.33 C13.38,0.33 15,0.38 15.93,0.47 C16.87,0.57 17.83,0.78 18.84,1.1 C19.84,1.42 20.58,1.91 21.07,2.57 C21.6,3.29 21.95,4.35 22.12,5.75 L17.43,5.75 L17.43,5.52 C17.43,4.98 17.45,4.59 17.48,4.34 C17.19,4.02 16.69,3.78 15.98,3.62 C15.26,3.46 14.51,3.35 13.7,3.3 C12.9,3.25 12.03,3.22 11.07,3.22 C10.28,3.22 9.43,3.25 8.53,3.31 L8.53,3.31 Z M4.76,6.12 L4.76,6.95 C4.76,7.35 4.57,7.55 4.19,7.55 L0.47,7.55 C0.37,7.55 0.27,7.48 0.16,7.35 C0.05,7.22 0,7.09 0,6.95 L0,6.12 L4.76,6.12 L4.76,6.12 Z M1.85,16.96 L1.85,13.07 C1.85,12.64 1.9,12.28 2.01,11.99 C2.12,11.71 2.3,11.39 2.56,11.06 L6.68,5.33 L6.68,4.11 L8.46,4.11 L8.54,5.33 L13.5,5.33 L13.5,4.11 L15.51,4.11 L15.51,5.42 L19.77,11.06 C20.09,11.46 20.29,11.77 20.36,12 C20.44,12.23 20.48,12.59 20.48,13.07 L20.48,16.96 C20.48,17.75 20.17,18.14 19.55,18.14 L2.69,18.14 C2.13,18.14 1.85,17.75 1.85,16.96 L1.85,16.96 Z M14.26,10.52 C15.15,10.08 15.59,9.55 15.59,8.94 C15.59,8.33 15.15,7.81 14.25,7.38 C13.36,6.95 12.3,6.74 11.07,6.74 C9.83,6.74 8.76,6.96 7.87,7.39 C6.97,7.83 6.53,8.34 6.53,8.94 C6.53,9.55 6.97,10.08 7.86,10.52 C8.75,10.96 9.82,11.17 11.07,11.17 C12.31,11.17 13.37,10.96 14.26,10.52 L14.26,10.52 Z M22.12,6.95 C22.12,7.1 22.08,7.24 21.99,7.36 C21.91,7.48 21.81,7.55 21.71,7.55 L17.92,7.55 C17.8,7.55 17.69,7.49 17.59,7.38 C17.48,7.27 17.42,7.13 17.42,6.95 L17.42,6.12 L22.12,6.12 L22.12,6.95 L22.12,6.95 L22.12,6.95 L22.12,6.95 Z" transform="translate(1 550.381)" opacity=".59"/>
    <path fill="#F7F7F7" d="M14.68,8.44 L22.19,16.84 L1.77,16.84 L9.28,8.44 L11.98,10.8 L14.68,8.44 L14.68,8.44 Z M22.07,0.12 L1.89,0.12 L11.98,8.95 L22.07,0.12 L22.07,0.12 Z M15.73,7.52 L23.12,15.79 L23.12,1.05 L15.73,7.52 L15.73,7.52 Z M0.84,1.05 L0.84,15.79 L8.23,7.52 L0.84,1.05 L0.84,1.05 Z" transform="translate(0 579.565)" opacity=".59"/>
    <path fill="#FFFFFF" d="M18.46,18 L18.46,14.34 L16.96,14.34 L16.96,1.61 L22,1.61 L22,18 L18.46,18 L18.46,18 Z M20.17,3.54 L18.04,3.54 L18.04,5.7 L20.17,5.7 L20.17,3.54 L20.17,3.54 Z M20.17,7 L18.04,7 L18.04,9.15 L20.17,9.15 L20.17,7 L20.17,7 Z M20.17,10.46 L18.04,10.46 L18.04,12.61 L20.17,12.61 L20.17,10.46 L20.17,10.46 Z M12.17,13.98 L9.83,13.98 L9.83,18 L5.95,18 L5.95,0 L16.05,0 L16.05,18 L12.17,18 L12.17,13.98 L12.17,13.98 Z M10.29,2.12 L7.96,2.12 L7.96,4.48 L10.29,4.48 L10.29,2.12 L10.29,2.12 Z M10.29,5.92 L7.96,5.92 L7.96,8.28 L10.29,8.28 L10.29,5.92 L10.29,5.92 Z M10.29,9.72 L7.96,9.72 L7.96,12.08 L10.29,12.08 L10.29,9.72 L10.29,9.72 Z M14.04,2.12 L11.71,2.12 L11.71,4.48 L14.04,4.48 L14.04,2.12 L14.04,2.12 Z M14.04,5.92 L11.71,5.92 L11.71,8.28 L14.04,8.28 L14.04,5.92 L14.04,5.92 Z M14.04,9.72 L11.71,9.72 L11.71,12.08 L14.04,12.08 L14.04,9.72 L14.04,9.72 Z M3.54,18 L0,18 L0,1.61 L5.04,1.61 L5.04,14.34 L3.54,14.34 L3.54,18 L3.54,18 Z M3.96,3.54 L1.83,3.54 L1.83,5.7 L3.96,5.7 L3.96,3.54 L3.96,3.54 Z M3.96,7 L1.83,7 L1.83,9.15 L3.96,9.15 L3.96,7 L3.96,7 Z M3.96,12.61 L3.96,10.46 L1.83,10.46 L1.83,12.61 L3.96,12.61 L3.96,12.61 Z" transform="translate(1 607.197)" opacity=".59"/>
    <path fill="#FFFFFF" d="M7.29,8.603 C9.23617842,8.43988738 10.6893231,6.74202598 10.55,4.794 C10.55,1.877 9.09,0.985 7.29,0.985 C5.49,0.985 4.03,1.877 4.03,4.794 C3.89067688,6.74202598 5.34382158,8.43988738 7.29,8.603 L7.29,8.603 Z M14.49,14.209 L12.85,10.509 C12.7712563,10.3384157 12.6374095,10.1992855 12.47,10.114 L9.92,8.788 C9.86543426,8.75854552 9.79856497,8.76444575 9.75,8.803 C8.3017812,9.9137229 6.2882188,9.9137229 4.84,8.803 C4.78766433,8.76436324 4.71800885,8.75855862 4.66,8.788 L2.11,10.114 C1.94315091,10.1968505 1.81178018,10.3370976 1.74,10.509 L0.09,14.209 C-0.023782637,14.4628342 -0.00094670843,14.7570692 0.150638229,14.9903079 C0.302223166,15.2235466 0.56183194,15.3638998 0.84,15.363 L13.74,15.363 C14.0185471,15.3644218 14.2786248,15.2238291 14.43,14.99 C14.5789615,14.7559524 14.6014632,14.4630546 14.49,14.209 L14.49,14.209 Z" transform="translate(0 636)"/>
  </g>
</svg>
